<svg fill="none" height="31" viewBox="0 0 100 31" width="100" xmlns="http://www.w3.org/2000/svg"><g fill="#fff"><path d="m17.9988 7.90989-12.03001-.06 2.97.78c.06 2.92001.04 5.35001-.06 7.29001.28-.04.69-.13 1.23001-.27-.12001-.64-.22001-1.67-.30001-3.09l4.86001-.24c.02.14.04.35.06.63.02.26.04.46.06.6.94-.7 1.68-1.49 2.22-2.37.52-.92.85-2.01001.99-3.27001zm5.67 17.40001-.81 4.83c-3.84-.64-6.86-2.27-9.06-4.89-1.16-1.48-2.03-3.08-2.61-4.8-.7.18-1.68001.37-2.94001.57-.74 3.32-2.29 5.55-4.65 6.69l-2.13-4.41c.64-.32 1.16-.93 1.56-1.83s.66-2.01.78-3.33c.14-1.34.23-2.88.27-4.62.04-1.76.04-3.65001 0-5.67001l-3.839998-.03.06-4.89 16.860008.12c-.12-.38-.25-.69-.39-.93l4.53-1.979997c.84 1.979997 1.34 3.859997 1.5 5.639997.3 2.9-.24 5.53001-1.62 7.89001-1.16 2.02-2.96 3.7-5.4 5.04.48 1.46 1.08 2.6 1.8 3.42.72.88 1.59 1.58 2.61 2.1s2.18.88 3.48 1.08z"/><path d="m49.7865 25.1599-4.35 2.19c-.04-.04-.19-.36-.45-.96-.26-.58-.61-1.48-1.05-2.7-.42-1.22-.84-2.58-1.26-4.08-.4-1.5-.75-3.3-1.05-5.4-.3-2.12-.46-4.24001-.48-6.36001h-12.3l3.36.93-.06 13.11001-4.92-.06.12-13.95001h-1.68v-4.95h1.68v-2.009999h4.92l-.06 2.009999h15.09v4.92h-1.23c.04 1.92.19 3.82001.45 5.70001s.56 3.48.9 4.8.69 2.52 1.05 3.6c.38 1.08.68 1.87.9 2.37.24.52.38.8.42.84z"/><path d="m53.8017 1.30989 4.86-.12.0599 1.74h13.4101v4.92h-1.35c.34 1.2.58 2.44001.72 3.72001.36 3.54-.22 6.65-1.74 9.33-1.68 2.92-4.29 4.92-7.83 6-1.1.34-2.34.57-3.72.69l-.42-4.02-3.4801.06-.3299-15.78001h-2.79v-4.92h2.67zm12.0599 7.26 2.3701-.72h-9.39l.36 14.64001c.22-.04.66-.14 1.32-.3 2.3-.68 3.9499-1.92 4.9499-3.72 1-1.7 1.38-3.84 1.14-6.42-.12-1.2-.37-2.36001-.75-3.48001z"/><path d="m99.4789 25.1599-4.35 2.19s-.05-.1-.15-.3c-.08-.2-.2-.5-.36-.9-.16-.38-.35-.84-.57-1.38-.2-.52-.42-1.13-.66-1.83-.22-.72-.45-1.49-.69-2.31-.22-.82-.44-1.72-.66-2.7-.2-1-.39-2.01-.57-3.03-.16-1.04-.29-2.17-.39-3.39s-.16-2.44001-.18-3.66001h-1.5l-.12 14.04001-4.86-.06.03-13.26001 3.42-.69h-4.86c0 1.98-.14 3.98001-.42 6.00001-.28 2-.59 3.69-.93 5.07-.32 1.36-.72 2.72-1.2 4.08-.46 1.36-.8 2.28-1.02 2.76-.2.5-.4.98-.6 1.44-.02.04-.04.07-.06.09v.03l-4.35-2.19s.04-.09.12-.27.19-.44.33-.78.3-.74.48-1.2.37-1 .57-1.62c.2-.64.4-1.32.6-2.04.22-.72.42-1.51.6-2.37.18-.88.34-1.78.48-2.7.16-.94.28-1.95.36-3.03.1-1.1.16-2.19001.18-3.27001h-2.73v-4.95h9.09v-2.009999h4.89v2.009999h7.65v4.92h-1.23c.02 1.1.07 2.20001.15 3.30001.08 1.08.19 2.08.33 3 .16.92.33 1.82.51 2.7s.37 1.68.57 2.4.4 1.4.6 2.04c.2.62.39 1.16.57 1.62s.34.86.48 1.2.25.59.33.75c.08.18.12.28.12.3z"/></g></svg>