<svg fill="none" height="25" viewBox="0 0 78 25" width="78" xmlns="http://www.w3.org/2000/svg"><g fill="#fff"><path d="m.918276 23.3699-.81-4.8c2.720004-.46 4.730004-1.64 6.030004-3.54h-1.56v-4.92h3.54c.6-2.41997.93-5.43997.99-9.05997l4.92002.12c-.12 3.46-.41 6.44-.87 8.93997l3.3.03-.18-9.08997 4.95-.119998.12 9.209968h2.25v4.89h-2.16l.12 6.21-4.92.06-.12-6.27h-7.47002l2.37002.51c-.34.72-.71 1.4-1.11 2.04-1.14002 1.72-2.49002 3.03-4.05002 3.93s-3.34 1.52-5.340004 1.86z"/><path d="m27.1133 1.04993 4.86-.119998.54 19.949968-4.95.12z"/><path d="m44.4194 12.5999h-8.4v-4.85997h8.4z"/><path d="m47.8869 24.2399-.81-4.8c2.92-.52 5.07-1.7 6.45-3.54h-1.98v-4.92l4.05.06c.3-1.21997.51-2.92997.63-5.12997l-9.09-.03.06-4.949998 21.21.179998-.06 4.86-7.23-.06c-.06 1.84-.24 3.55-.54 5.12997h6.87v4.86h-10.92l2.22.81c-.3.62-.69 1.28-1.17 1.98-2.18 3-5.41 4.85-9.69 5.55z"/><path d="m72.017 1.04993 4.86-.119998.54 19.949968-4.95.12z"/></g></svg>