<svg fill="none" height="16" viewBox="0 0 17 16" width="17" xmlns="http://www.w3.org/2000/svg"><g clip-rule="evenodd" fill="#fff" fill-rule="evenodd"><path d="m7.15311.00244002c.25982-.00040668.54974 0 .87543 0 2.60556 0 2.91436.00935328 3.94336.05611958.9514.0435134 1.4678.2025184 1.8118.3361084.4554.176899.7801.388364 1.1215.729962.3415.3416.553.66693.7303 1.12239.1335.34363.2927.8601.336 1.81169.0468 1.02886.0569 1.33793.0569 3.94261s-.0101 2.91378-.0569 3.94258c-.0435.9516-.2025 1.4681-.336 1.8117-.1769.4555-.3888.7798-.7303 1.1212-.3416.3416-.6659.5531-1.1215.73-.3435.1342-.8604.2928-1.8118.3363-1.0288.0467-1.3378.0569-3.94336.0569-2.60577 0-2.91459-.0102-3.94332-.0569-.95148-.044-1.46788-.203-1.81207-.3365-.45541-.1769-.7807-.3884-1.12225-.73-.341558-.3416-.552997-.6661-.73028-1.1218-.133572-.3436-.292761-.8601-.3360651-1.8117-.0467604-1.0288-.0561125-1.3379-.0561125-3.94422 0-2.60631.0093521-2.91375.0561125-3.94261.0435071-.95159.2024931-1.46806.3360651-1.81209.176877-.45547.388722-.7808.73028-1.1224.34155-.341595.66684-.55306 1.12225-.730366.34399-.134199.86059-.2927979 1.81207-.3365143.90024-.0406664 1.24911-.05286636 3.06789-.0548997zm6.08459 1.62055998c-.6466 0-1.1711.52398-1.1711 1.17078 0 .6466.5245 1.1712 1.1711 1.1712.6465 0 1.171-.5246 1.171-1.1712 0-.64659-.5245-1.17119-1.171-1.17119zm-5.20916 1.36842c-2.7676 0-5.0115 2.24418-5.0115 5.01214 0 2.76794 2.2439 5.01114 5.0115 5.01114 2.76766 0 5.01066-2.2432 5.01066-5.01114 0-2.76796-2.2433-5.01214-5.01086-5.01214z"/><path d="m8.02854 4.75024c1.79641 0 3.25286 1.45647 3.25286 3.25332 0 1.79664-1.45645 3.25334-3.25286 3.25334-1.79662 0-3.25291-1.4567-3.25291-3.25334 0-1.79685 1.45629-3.25332 3.25291-3.25332z"/></g></svg>