<svg fill="none" height="45" viewBox="0 0 246 45" width="246" xmlns="http://www.w3.org/2000/svg"><g clip-rule="evenodd" fill="#fff" fill-rule="evenodd"><path d="m22.5014 22.0648-15.21703-8.9379 3.75263-5.69675-6.0243-3.55096 2.28458-3.87919 10.10292 5.9552-3.7485 5.6885 8.8497 5.1982 8.8497-5.1982-3.7486-5.6885 10.1029-5.9552 2.2846 3.87919-6.0243 3.55096 3.7527 5.69675z"/><path d="m22.5015 39.7783-6.8235-4.008-1.6751 4.2379 8.4986 4.9919 8.4985-4.9917-1.6751-4.2381z"/><path d="m0 26.5569v5.2308l6.14711 3.6062 1.67531-4.238z"/><path d="m3.16992 21.1355v4.9621l5.40027 3.1661 1.58821-4.0176z"/><path d="m22.5012 7.74194 3.2525 3.25556-3.2525 3.2535-3.2522-3.2535z"/><path d="m18.5629 22.3501-12.03507-7.0527v5.19l6.43207 3.7934-4.84881 12.2668 3.92811 2.3072z"/><path d="m45.0031 26.5569v5.2308l-6.1471 3.6062-1.6753-4.238z"/><path d="m41.8332 21.1355v4.9621l-5.4003 3.1661-1.5882-4.0176z"/><path d="m26.4404 22.3501 12.0351-7.0527v5.19l-6.432 3.7934 4.8488 12.2668-3.9282 2.3072z"/><path d="m164.99 30.4748 1.289-3.0748h1.37v-11.4341h-2.659l1.289-3.075h7.098l-1.292 3.075h-1.363v11.4341h2.655l-1.292 3.0748z"/><path d="m74.0347 28.5847.3093-.1871c3.0724-1.8576 4.7139-6.0375 4.8818-12.4317h-2.6425l1.2903-3.075h8.4034l1.2903 3.075h-2.6495c.1679 6.3901 1.8092 10.571 4.8802 12.4278l.3096.1871-1.589 2.6319-.3096-.1871c-3.4113-2.0625-5.4685-5.9919-6.1373-11.7077-.6687 5.717-2.7263 9.6485-6.1385 11.7116l-.3095.1871z"/><path d="m90.9624 28.5772.3094-.1871c3.0712-1.8565 4.7122-6.0361 4.8801-12.4261h-2.6407l1.2904-3.0751h15.1154l1.29 3.0751h-2.625c.168 6.388 1.809 10.5689 4.88 12.4255l.31.187-1.589 2.6318-.31-.1871c-4.042-2.4436-6.183-7.5085-6.365-15.0572h-1.584v14.4994h-3.073v-14.4994h-1.6248c-.1825 7.5493-2.3233 12.6144-6.3652 15.058l-.3096.1871z"/><path d="m147.835 28.5847.31-.1871c3.071-1.8574 4.713-6.0375 4.881-12.4317h-2.643l1.29-3.075h8.403l1.291 3.075h-2.648c.166 6.3901 1.808 10.571 4.879 12.4278l.309.1871-1.588 2.6319-.31-.1871c-3.411-2.0625-5.469-5.9927-6.138-11.7077-.668 5.717-2.726 9.6483-6.138 11.7116l-.309.1871z"/><path d="m136.752 20.9016c4.127-1.118 5.579-3.3458 6.087-4.8454h-6.087zm8.328 10.1171c-3.615-1.1789-6.411-3.1027-8.328-5.7271v5.171h-3.073v-6.1068h-3.534l1.29-3.0747h2.244v-7.1224h.045v-1.1775h12.393l.064 1.4709c.004.0882.075 2.1867-1.304 4.4371-.843 1.3765-2.516 3.2392-5.728 4.4651 1.542 2.1595 3.854 3.7534 6.884 4.7412l.344.1118-.953 2.9236z"/><path d="m119.887 30.4666-.4-.2835c-5.575-3.9563-5.575-13.7208-5.575-16.9291v-.3631h3.073v.3631c0 2.7017 0 10.8804 3.912 14.1378h3.399v-14.5009h3.071v14.5009h2.622l-1.289 3.0748z"/><path d="m198.808 28.6075.309-.1871c3.073-1.8572 4.715-6.0377 4.883-12.4319h-2.644l1.291-3.073h8.404l1.291 3.073h-2.651c.168 6.3901 1.811 10.5715 4.882 12.4282l.309.1871-1.591 2.6319-.307-.1871c-3.414-2.0627-5.47-5.9921-6.138-11.7061-.668 5.7152-2.727 9.6469-6.14 11.7098l-.31.1871z"/><path d="m229.928 28.6075.309-.1871c3.071-1.8574 4.713-6.0377 4.881-12.4319h-2.642l1.291-3.073h8.404l1.289 3.073h-2.648c.166 6.3901 1.808 10.5715 4.879 12.4282l.309.1871-1.589 2.6319-.309-.1871c-3.411-2.0627-5.468-5.9929-6.138-11.7081-.668 5.7172-2.727 9.6487-6.138 11.7118l-.309.1871z"/><path d="m184.435 30.4793v-7.6708l3.07.9455v3.6504h6.446c-.638-5.7683-3.846-9.6331-9.541-11.4917l-.439-.1415.931-2.8576h13.106l-1.29 3.075h-5.586c3.815 2.9786 5.832 7.3153 6.001 12.907l.047 1.5837z"/><path d="m59.6602 30.4563v-7.6707l3.0729.9455v3.6504h6.445c-.6376-5.7681-3.8464-9.6329-9.542-11.4915l-.4383-.1415.9299-2.8576h13.1076l-1.2905 3.075h-5.5866c3.815 2.9786 5.8324 7.3151 6.0007 12.9068l.0474 1.5836z"/><path d="m226.383 30.5681c-5.244-1.7098-11.56-5.8795-11.866-16.032l-.047-1.5837h14.443l-1.292 3.073h-9.922c.56 5.1141 3.122 8.7555 7.624 10.8342v-4.6h-3.413l1.289-3.0751h5.197v12.0397z"/></g></svg>