<svg fill="none" height="24" viewBox="0 0 92 24" width="92" xmlns="http://www.w3.org/2000/svg"><g fill="#fff"><path d="m2.08864.679932 18.53996.059997v4.860001h-.87c-.12 1.86-.31 3.41-.57 4.64997h1.44v4.86h-3c-.88 1.98-2.08 3.61-3.6 4.89-1.64 1.42-3.54 2.39-5.69996 2.91-2.16.52-4.63.76-7.41.72l.06-4.92c4.52.14 7.81-.67 9.86996-2.43.4-.36.78-.75 1.14-1.17l-4.04996-.06v.72l-4.86-.06v-.66h-.99v-4.86h.99v-4.64997h-.99zm5.91 5.849998-.06 3.65997h6.26996c.3-1.45997.51-2.98997.63-4.58997l-9.98996-.06z"/><path d="m25.5722.679932 18.54.059997v4.860001h-.87c-.12 1.86-.31 3.41-.57 4.64997h1.44v4.86h-3c-.88 1.98-2.08 3.61-3.6 4.89-1.64 1.42-3.54 2.39-5.7 2.91s-4.63.76-7.41.72l.06-4.92c4.52.14 7.81-.67 9.87-2.43.4-.36.78-.75 1.14-1.17l-4.05-.06v.72l-4.86-.06v-.66h-.99v-4.86h.99v-4.64997h-.99zm5.91 5.849998-.06 3.65997h6.27c.3-1.45997.51-2.98997.63-4.58997l-9.99-.06z"/><path d="m49.0557.679932 18.54.059997v4.860001h-.87c-.12 1.86-.31 3.41-.57 4.64997h1.44v4.86h-3c-.88 1.98-2.08 3.61-3.6 4.89-1.64 1.42-3.54 2.39-5.7 2.91s-4.63.76-7.41.72l.06-4.92c4.52.14 7.81-.67 9.87-2.43.4-.36.78-.75 1.14-1.17l-4.05-.06v.72l-4.86-.06v-.66h-.99v-4.86h.99v-4.64997h-.99zm5.91 5.849998-.06 3.65997h6.27c.3-1.45997.51-2.98997.63-4.58997l-9.99-.06z"/><path d="m72.5393.679932 18.54.059997v4.860001h-.87c-.12 1.86-.31 3.41-.57 4.64997h1.44v4.86h-3c-.88 1.98-2.08 3.61-3.6 4.89-1.64 1.42-3.54 2.39-5.7 2.91s-4.63.76-7.41.72l.06-4.92c4.52.14 7.81-.67 9.87-2.43.4-.36.78-.75 1.14-1.17l-4.05-.06v.72l-4.86-.06v-.66h-.99v-4.86h.99v-4.64997h-.99zm5.91 5.849998-.06 3.65997h6.27c.3-1.45997.51-2.98997.63-4.58997l-9.99-.06z"/></g></svg>