<svg width="67" height="145" viewBox="0 0 67 145" fill="none" xmlns="http://www.w3.org/2000/svg">
<path d="M19.93 0.620117C15.66 11.5401 8.45002 22.2501 0.890015 29.1101C1.94001 30.3001 3.55002 32.8901 4.04001 34.1501C6.91002 31.4901 9.64001 28.2701 12.23 24.7701V64.2501H17.34V17.1401C20.21 12.3801 22.8 7.27012 24.9 2.16012L19.93 0.620117ZM66.27 27.5701V22.5301H46.25V1.53012H41V22.5301H21.12V27.5701H41V56.4801H22.8V61.5201H65.08V56.4801H46.25V27.5701H66.27Z" fill="#B80707"/>
<path d="M25.81 117.16C24.62 115.27 19.37 107.36 17.41 104.77V100.36H25.39V95.5301H17.41V80.4101H12.65V95.5301H2.85001V100.36H12.09C10.06 109.88 5.79001 120.8 1.45001 126.61C2.29001 127.8 3.55002 129.76 4.11002 131.09C7.33001 126.54 10.34 119.19 12.65 111.56V144.25H17.41V110.93C19.51 114.43 21.96 118.77 22.94 121.01L25.81 117.16ZM39.95 126.82C33.58 130.32 27 133.89 22.59 136.13L25.04 140.47C29.8 137.81 35.75 134.38 41.35 131.09L39.95 126.82ZM27.63 117.44C30.29 120.31 33.3 124.23 34.63 126.82L38.41 124.16C37.01 121.64 33.93 117.86 31.2 115.13L27.63 117.44ZM55.28 127.17C58.15 124.65 61.93 121.08 64.8 117.65L60.81 114.85C58.71 117.72 55 121.71 52.2 124.23C50.52 121.43 49.05 118.42 48 115.13V112.33H65.64V107.92H48V102.53H63.12V98.4701H48V93.5001H64.66V89.2301H55.42C56.75 87.1301 58.29 84.4001 59.76 81.8101L54.65 80.3401C53.74 82.8601 51.99 86.6401 50.59 89.0201L51.22 89.2301H39.04L40.3 88.7401C39.6 86.5701 37.78 83.1401 36.1 80.6901L32.04 82.0201C33.3 84.2601 34.77 87.0601 35.54 89.2301H26.79V93.5001H42.96V98.4701H28.82V102.53H42.96V107.92H25.32V112.33H42.96V138.51C42.96 139.42 42.75 139.7 41.84 139.7C40.93 139.77 37.92 139.77 34.84 139.7C35.54 140.96 36.1 143.13 36.31 144.46C40.65 144.46 43.8 144.39 45.62 143.55C47.44 142.71 48 141.31 48 138.51V125C51.78 132.21 56.96 138.09 63.54 141.38C64.31 140.05 65.85 138.16 66.9 137.18C61.23 134.87 56.54 130.74 53.04 125.49L55.28 127.17Z" fill="#B80707"/>
</svg>
