<svg width="54" height="54" viewBox="0 0 54 54" fill="none" xmlns="http://www.w3.org/2000/svg">
<path fill-rule="evenodd" clip-rule="evenodd" d="M26.9999 26.4778L8.74077 15.7522L13.2436 8.91618L6.01495 4.65502L8.75627 0L20.8789 7.14624L16.381 13.9725L26.9999 20.2103L37.6188 13.9725L33.1209 7.14624L45.2435 0L47.9848 4.65502L40.7561 8.91618L45.259 15.7522L26.9999 26.4778Z" fill="white"/>
<path fill-rule="evenodd" clip-rule="evenodd" d="M26.9999 47.7339L18.8124 42.9243L16.8024 48.0099L26.9999 54.0001L37.1974 48.0101L35.1874 42.9243L26.9999 47.7339Z" fill="white"/>
<path fill-rule="evenodd" clip-rule="evenodd" d="M0 31.8684V38.1454L7.37601 42.4728L9.38625 37.3872L0 31.8684Z" fill="white"/>
<path fill-rule="evenodd" clip-rule="evenodd" d="M3.80353 25.3625V31.3171L10.2834 35.1164L12.1891 30.2952L3.80353 25.3625Z" fill="white"/>
<path fill-rule="evenodd" clip-rule="evenodd" d="M26.9999 9.29028L30.9025 13.197L26.9999 17.1012L23.0975 13.197L26.9999 9.29028Z" fill="white"/>
<path fill-rule="evenodd" clip-rule="evenodd" d="M22.2737 26.8199L7.83258 18.3567V24.5847L15.5505 29.1368L9.73236 43.8569L14.4458 46.6256L22.2737 26.8199Z" fill="white"/>
<path fill-rule="evenodd" clip-rule="evenodd" d="M54 31.8684V38.1454L46.624 42.4728L44.6138 37.3872L54 31.8684Z" fill="white"/>
<path fill-rule="evenodd" clip-rule="evenodd" d="M50.1965 25.3625V31.3171L43.7166 35.1164L41.8109 30.2952L50.1965 25.3625Z" fill="white"/>
<path fill-rule="evenodd" clip-rule="evenodd" d="M31.7261 26.8199L46.1672 18.3567V24.5847L38.4492 29.1368L44.2674 43.8569L39.554 46.6256L31.7261 26.8199Z" fill="white"/>
</svg>
