<svg width="66" height="145" viewBox="0 0 66 145" fill="none" xmlns="http://www.w3.org/2000/svg">
<path d="M24.74 2.85984H4.58001V7.05984H24.74V2.85984ZM27.33 12.0298H0.940005V16.2998H27.33V12.0298ZM20.33 44.3698V56.1298H8.64001V44.3698H20.33ZM24.88 40.0998H4.09V63.5499H8.64001V60.3298H24.88V40.0998ZM4.23 34.9198H24.95V30.7198H4.23V34.9198ZM4.23 25.6098H24.95V21.4798H4.23V25.6098ZM65.13 42.2698H48.61V32.3298H62.68V27.6398H48.61V18.5398H64.15V13.7098H54.98C56.87 10.5598 59.11 5.93985 61.07 1.94984L55.96 0.339844C54.84 4.04985 52.39 9.36984 50.64 12.7298L53.16 13.7098H39.09L41.61 12.6598C40.84 9.43985 38.46 4.53984 36.15 0.829846L31.95 2.36985C34.05 5.79984 36.08 10.4198 36.99 13.7098H28.94V18.5398H43.57V27.6398H30.27V32.3298H43.57V42.2698H26.77V47.0298H43.57V64.3198H48.61V47.0298H65.13V42.2698Z" fill="#B80707"/>
<path d="M4.72001 120.1C3.88001 126.19 2.62 132.42 0.380005 136.69C1.5 137.04 3.60001 138.02 4.44001 138.65C6.61 134.17 8.29 127.45 9.20001 120.87L4.72001 120.1ZM19.84 121.15C21.73 125.42 23.76 131.09 24.39 134.73L28.59 133.33C27.82 129.69 25.86 124.09 23.83 119.82L19.84 121.15ZM18.58 104.28C19.7 105.96 20.75 107.85 21.73 109.74L10.88 110.44C15.71 104.63 21.03 96.8598 24.95 90.4898L20.61 88.3898C18.58 92.2398 15.78 96.9299 12.77 101.41C11.65 99.9398 10.18 98.1898 8.5 96.5098C11.16 92.5898 14.24 86.9898 16.69 82.2298L12 80.4098C10.53 84.3298 7.94001 89.7198 5.56001 93.6398C4.86001 93.0098 4.23 92.3798 3.53 91.8198L0.870005 95.2498C4.23001 98.1198 8.01 102.25 10.04 105.33C8.64 107.29 7.24 109.18 5.84 110.79C3.88001 110.93 2.06 111.07 0.380005 111.14L1.15 115.9L12.7 114.85V144.25H17.39V114.43L23.69 113.8C24.53 115.76 25.23 117.51 25.65 118.98L29.85 116.95C28.66 113.03 25.58 107.08 22.5 102.6L18.58 104.28ZM48.4 134.87V114.85H57.99V134.87H48.4ZM34.68 114.85H43.78V134.87H34.68V114.85ZM43.78 90.8398V110.09H34.68V90.8398H43.78ZM57.99 110.09H48.4V90.8398H57.99V110.09ZM29.99 86.0098V143.48H34.68V139.7H57.99V142.92H62.82V86.0098H29.99Z" fill="#B80707"/>
</svg>
