<svg width="173" height="569" viewBox="0 0 173 569" fill="none" xmlns="http://www.w3.org/2000/svg">
<path d="M41.92 0.259766C32.92 25.9998 17.26 51.3798 1.05995 67.5798C4.65995 72.7998 10.6 84.4998 12.58 89.8998C16.36 85.7598 20.14 81.4398 23.92 76.5798V167.3H44.2599V45.2598C51.2799 32.6598 57.4 19.5198 62.26 6.73977L41.92 0.259766ZM65.68 118.52C73.6 128.06 82.78 141.38 85.84 150.2L105.64 139.76C101.86 130.76 92.14 118.34 84.04 109.16L65.68 118.52ZM172.6 74.5998V55.1598H123.64V39.4998H163.78V20.0598H123.64V0.439763H101.68V20.0598H63.88V39.4998H101.68V55.1598H53.26V74.5998H127.06V88.8198H55.24V108.26H127.06V144.62C127.06 147.14 126.16 147.68 123.28 147.68C120.4 147.86 110.14 147.86 101.32 147.5C103.84 153.26 106.9 161.54 107.8 167.66C121.84 167.66 132.28 167.3 139.48 164.06C146.86 161 149.02 155.78 149.02 144.98V108.26H170.98V88.8198H149.02V74.5998H172.6Z" fill="#B80707"/>
<path d="M172.24 254.62V234.46H108.52C110.5 224.56 112.12 214.3 113.56 203.86L91.6 201.52C90.16 212.86 88.54 223.84 86.38 234.46H54.7V254.62H82.06C74.5 285.22 63.52 311.68 47.1399 330.4V241.12C53.62 229.78 59.2 217.9 63.88 206.38L44.08 199.9C34.36 225.46 17.8 251.02 0.699951 267.22C4.29995 272.26 9.87995 283.96 11.86 289C16.9 283.96 21.9399 278.38 26.8 272.08V367.12H47.1399V337.24C52 341.56 58.12 347.68 60.64 351.1C73.6 336.34 83.68 317.8 91.78 296.38V301.6H115.9V341.92H76.48V361.9H172.24V341.92H137.14V301.6H168.28V281.8H96.82C99.52 273.16 102.04 263.98 104.2 254.62H172.24Z" fill="#B80707"/>
<path d="M142.36 441.84H117.88V424.02H142.36V441.84ZM162.88 407.82H98.44V457.68H162.88V407.82ZM71.08 427.26C70.36 435.72 69.64 439.5 68.38 440.94C66.94 442.38 65.5 442.56 62.98 442.56C60.4599 442.56 54.34 442.56 47.68 441.84C50.38 446.34 52.36 453.18 52.72 458.22C60.82 458.76 68.38 458.58 72.52 458.04C77.56 457.5 81.16 456.06 84.4 452.82C88.18 448.5 89.62 438.42 90.52 417.18C90.7 414.84 90.88 410.34 90.88 410.34H55.24C55.6 406.92 55.96 403.32 56.14 399.54H36.16C35.98 403.32 35.62 406.92 35.26 410.34H8.43995V427.26H31.66C27.5199 438.6 19.6 447.06 3.03995 452.82C7.17995 456.42 12.4 463.62 14.38 468.66C37.42 459.66 47.5 445.8 52.36 427.26H71.08ZM49.84 516.72H127.78V524.64H49.84V516.72ZM49.84 496.92H127.78V504.66H49.84V496.92ZM49.84 477.12H127.78V484.86H49.84V477.12ZM149.56 537.42V464.34H29.14V537.42H55.6C43.18 543.54 23.56 549.3 6.09995 552.54C10.6 556.32 18.16 564.06 21.94 568.2C40.12 563.16 63.16 554.34 78.1 544.62L61.72 537.42H113.02L98.08 546.78C116.62 553.44 135.7 561.9 146.32 567.84L169.36 557.4C157.3 551.64 136.96 543.54 118.78 537.42H149.56Z" fill="#B80707"/>
</svg>
