<svg width="17" height="14" viewBox="0 0 17 14" fill="none" xmlns="http://www.w3.org/2000/svg">
<path fill-rule="evenodd" clip-rule="evenodd" d="M8.12112 3.78193L8.1558 4.34422L7.57775 4.27537C5.47367 4.01144 3.63549 3.11637 2.07477 1.61311L1.31176 0.867224L1.11522 1.41804C0.69903 2.64589 0.96493 3.94259 1.832 4.81471C2.29443 5.29667 2.19038 5.36552 1.39268 5.07864C1.11522 4.98683 0.872443 4.91798 0.849321 4.95241C0.768395 5.03273 1.04586 6.07698 1.26551 6.49009C1.5661 7.06385 2.17882 7.62614 2.84935 7.95892L3.41584 8.22285L2.74531 8.23433C2.0979 8.23433 2.07477 8.2458 2.14414 8.48678C2.37536 9.23267 3.28867 10.0245 4.30603 10.3687L5.0228 10.6097L4.39851 10.9769C3.47364 11.5048 2.38692 11.8031 1.3002 11.8261C0.779956 11.8376 0.352203 11.8835 0.352203 11.9179C0.352203 12.0326 1.76263 12.6752 2.58345 12.9277C5.04592 13.6736 7.97082 13.3523 10.1674 12.0785C11.7281 11.172 13.2888 9.37037 14.0172 7.62614C14.4102 6.69664 14.8033 4.99831 14.8033 4.18357C14.8033 3.65571 14.838 3.58685 15.4854 2.95572C15.8669 2.58851 16.2253 2.18688 16.2947 2.07212C16.4103 1.85409 16.3987 1.85409 15.8091 2.04917C14.8264 2.39343 14.6877 2.34753 15.1733 1.83114C15.5316 1.46394 15.9594 0.798372 15.9594 0.603293C15.9594 0.568867 15.786 0.626244 15.5894 0.729521C15.3814 0.844273 14.9189 1.0164 14.5721 1.11968L13.9478 1.31476L13.3813 0.936075C13.0692 0.729521 12.6299 0.500016 12.3986 0.431165C11.809 0.270511 10.9073 0.293462 10.3755 0.477065C8.93038 0.993451 8.01707 2.32458 8.12112 3.78193Z" fill="white"/>
</svg>
