<svg width="63" height="63" viewBox="0 0 63 63" fill="none" xmlns="http://www.w3.org/2000/svg">
<rect x="31.1127" y="1.06066" width="42.5" height="42.5" rx="5.25" transform="rotate(45 31.1127 1.06066)" fill="#B80707" fill-opacity="0.304104" stroke="#B80707" stroke-width="1.5"/>
<path d="M39.3792 21.3696C39.4738 21.4122 39.5521 21.4841 39.6026 21.5747C39.6535 21.6658 39.6736 21.7709 39.6597 21.8743C39.6458 21.9776 39.5987 22.0737 39.5255 22.1481L28.2277 33.4314L29.8127 35.0069C29.8579 35.0516 29.8937 35.1049 29.9182 35.1636C29.9427 35.2224 29.9553 35.2853 29.9553 35.3489C29.9553 35.4125 29.9427 35.4755 29.9182 35.5342C29.8937 35.5929 29.8579 35.6462 29.8127 35.691L28.9263 36.5486C28.836 36.6383 28.7139 36.6887 28.5866 36.6887C28.4593 36.6887 28.3372 36.6383 28.2469 36.5486L27.0039 35.3104L23.2171 39.2369C23.1729 39.2833 23.1199 39.3204 23.0612 39.3461C23.0024 39.3717 22.9392 39.3854 22.8751 39.3863C22.7475 39.3845 22.6253 39.3346 22.533 39.2465L21.8441 38.5528L21.0828 39.3188C21.1576 39.5473 21.1532 39.7944 21.0704 40.0201C20.9875 40.2459 20.831 40.4371 20.6261 40.5629C20.4212 40.6888 20.1798 40.7419 19.941 40.7137C19.7022 40.6855 19.4799 40.5777 19.3099 40.4076C19.1113 40.205 19 39.9326 19 39.6488C19 39.3651 19.1113 39.0927 19.3099 38.89C19.4501 38.7511 19.6261 38.6538 19.8183 38.6087C20.0104 38.5636 20.2113 38.5726 20.3987 38.6347L21.1647 37.8831L20.4758 37.1942C20.4306 37.1486 20.3949 37.0944 20.3709 37.0348C20.3469 36.9752 20.3351 36.9115 20.3361 36.8473C20.3363 36.7835 20.3492 36.7205 20.3741 36.6617C20.3989 36.603 20.4351 36.5498 20.4806 36.5052L24.412 32.7184L23.169 31.4802C23.1238 31.4354 23.088 31.3821 23.0635 31.3234C23.039 31.2647 23.0264 31.2017 23.0264 31.1381C23.0264 31.0745 23.039 31.0116 23.0635 30.9529C23.088 30.8941 23.1238 30.8409 23.169 30.7961L24.0313 29.9385C24.1216 29.8488 24.2437 29.7984 24.371 29.7984C24.4983 29.7984 24.6204 29.8488 24.7107 29.9385L26.2765 31.5043L35.5604 22.2107C35.6226 22.145 35.7032 22.0996 35.7917 22.0806L39.0774 21.3387C39.1787 21.3162 39.2845 21.3271 39.3792 21.3696Z" fill="white"/>
<path d="M23.6208 21.3696C23.5262 21.4122 23.4479 21.4841 23.3974 21.5747C23.3465 21.6658 23.3264 21.7709 23.3403 21.8743C23.3542 21.9776 23.4013 22.0737 23.4745 22.1481L34.7723 33.4314L33.1873 35.0069C33.1421 35.0516 33.1063 35.1049 33.0818 35.1636C33.0573 35.2224 33.0447 35.2853 33.0447 35.3489C33.0447 35.4125 33.0573 35.4755 33.0818 35.5342C33.1063 35.5929 33.1421 35.6462 33.1873 35.691L34.0737 36.5486C34.164 36.6383 34.2861 36.6887 34.4134 36.6887C34.5407 36.6887 34.6628 36.6383 34.7531 36.5486L35.9961 35.3104L39.7829 39.2369C39.8271 39.2833 39.8801 39.3204 39.9388 39.3461C39.9976 39.3717 40.0608 39.3854 40.1249 39.3863C40.2525 39.3845 40.3747 39.3346 40.467 39.2465L41.1559 38.5528L41.9172 39.3188C41.8424 39.5473 41.8468 39.7944 41.9296 40.0201C42.0125 40.2459 42.169 40.4371 42.3739 40.5629C42.5788 40.6888 42.8202 40.7419 43.059 40.7137C43.2978 40.6855 43.5201 40.5777 43.6901 40.4076C43.8887 40.205 44 39.9326 44 39.6488C44 39.3651 43.8887 39.0927 43.6901 38.89C43.5499 38.7511 43.3739 38.6538 43.1817 38.6087C42.9896 38.5636 42.7887 38.5726 42.6013 38.6347L41.8353 37.8831L42.5242 37.1942C42.5694 37.1486 42.6051 37.0944 42.6291 37.0348C42.6531 36.9752 42.6649 36.9115 42.6639 36.8473C42.6637 36.7835 42.6508 36.7205 42.6259 36.6617C42.6011 36.603 42.5649 36.5498 42.5194 36.5052L38.588 32.7184L39.831 31.4802C39.8762 31.4354 39.912 31.3821 39.9365 31.3234C39.961 31.2647 39.9736 31.2017 39.9736 31.1381C39.9736 31.0745 39.961 31.0116 39.9365 30.9529C39.912 30.8941 39.8762 30.8409 39.831 30.7961L38.9687 29.9385C38.8784 29.8488 38.7563 29.7984 38.629 29.7984C38.5017 29.7984 38.3796 29.8488 38.2893 29.9385L36.7235 31.5043L27.4396 22.2107C27.3774 22.145 27.2968 22.0996 27.2083 22.0806L23.9226 21.3387C23.8213 21.3162 23.7155 21.3271 23.6208 21.3696Z" fill="white"/>
</svg>
