<svg width="66" height="141" viewBox="0 0 66 141" fill="none" xmlns="http://www.w3.org/2000/svg">
<path d="M62.94 13.0801C61.47 9.86012 57.83 5.10012 54.61 1.60012L50.69 3.70012C53.91 7.27012 57.41 12.2401 58.74 15.6001L62.94 13.0801ZM31.23 0.830119C29.9 4.89012 27.17 10.6301 25 14.2001L29.13 15.6701C31.37 12.3801 34.24 7.06012 36.55 2.44012L31.23 0.830119ZM20.73 12.4501C20.52 9.37012 19.19 4.40012 17.58 0.620117L13.1 1.67012C14.57 5.45012 15.83 10.5601 16.04 13.6401L20.73 12.4501ZM9.60001 13.4301C8.90001 10.3501 6.73001 5.59012 4.42001 2.09012L0.15001 3.49012C2.39001 7.13012 4.42001 12.0301 5.05001 15.1801L9.60001 13.4301ZM6.87001 30.9301H16.04V37.3701H6.87001V30.9301ZM6.87001 20.7101H16.04V27.0801H6.87001V20.7101ZM29.62 27.0801H20.45V20.7101H29.62V27.0801ZM29.62 37.3701H20.45V30.9301H29.62V37.3701ZM36.27 52.1401V47.4501H20.73V41.4301H34.1V16.6501H2.53001V41.4301H15.76V47.4501H0.0100098V52.1401H15.76V64.3201H20.73V52.1401H36.27ZM57.69 26.3801C56.01 31.7701 53.42 37.0901 50.27 41.8501C49.29 36.9501 48.45 31.0701 47.82 24.5601L64.27 22.4601L63.64 17.7701L47.4 19.8001C46.91 13.7801 46.56 7.41012 46.42 0.760119H41.45C41.66 7.62012 42.01 14.2001 42.5 20.3601L34.73 21.3401L35.36 26.1001L42.92 25.1201C43.76 33.5901 44.88 41.0801 46.42 47.1701C41.73 52.8401 36.2 57.4601 30.04 60.3301C31.37 61.3101 32.91 62.8501 33.75 64.0401C38.93 61.3101 43.76 57.3901 47.96 52.6301C50.48 59.8401 53.91 64.0401 58.46 64.2501C61.33 64.3901 63.92 61.3101 65.32 50.4601C64.48 50.0401 62.38 48.7801 61.47 47.6601C60.98 54.5201 60 58.3001 58.46 58.2301C55.8 58.0201 53.56 54.2401 51.74 47.9401C56.01 42.1301 59.44 35.4801 61.75 28.6901L57.69 26.3801Z" fill="#B80707"/>
<path d="M63.22 107.71V102.6H34.59V80.6901H29.13V102.6H0.92001V107.71H29.13V135.36H4.84001V140.47H59.51V135.36H34.59V107.71H63.22Z" fill="#B80707"/>
</svg>
