<svg width="20" height="20" viewBox="0 0 20 20" fill="none" xmlns="http://www.w3.org/2000/svg">
<path fill-rule="evenodd" clip-rule="evenodd" d="M10 20C15.5225 20 20 15.5225 20 10C20 4.47747 15.5237 0 10 0C4.47747 0 0 4.47747 0 10C0 15.5225 4.47747 20 10 20ZM16.5289 11.7363V11.0922C16.5289 11.0326 16.4714 10.9894 16.4149 11.0058L13.3727 11.8853C13.3563 11.8894 13.3419 11.8987 13.3306 11.911C13.0047 12.271 12.7278 12.5126 12.6545 12.5765L12.6495 12.5809C12.4604 12.7411 12.2262 12.8285 11.9796 12.8285H10.8782V11.7055H11.7536C11.7762 11.7055 11.7977 11.6973 11.8142 11.6829L11.9272 11.5791C11.9755 11.535 12.033 11.4815 12.1018 11.4127L12.1194 11.3951L12.1195 11.3951C12.1557 11.359 12.1944 11.3205 12.2323 11.2781C12.2775 11.2339 12.3217 11.1846 12.3628 11.1363C12.4317 11.0624 12.4974 10.9853 12.5662 10.9041C12.6155 10.8507 12.6608 10.7901 12.7049 10.7295C12.7543 10.6719 12.8025 10.6072 12.8477 10.5456C12.8645 10.521 12.8823 10.4962 12.9005 10.4708L12.9005 10.4707L12.9005 10.4707C12.918 10.4462 12.9359 10.4213 12.9536 10.3956C12.9865 10.3462 13.0193 10.2938 13.0471 10.2445C13.1334 10.111 13.2063 9.96815 13.268 9.82535C13.2962 9.7643 13.3188 9.70003 13.3407 9.63754L13.3407 9.63752L13.3491 9.61371C13.3738 9.54076 13.3943 9.47193 13.4097 9.39898C13.4467 9.2274 13.4549 9.05684 13.4385 8.88631C13.4344 8.83289 13.4303 8.78049 13.418 8.73116V8.72296C13.4138 8.68802 13.4056 8.64898 13.3943 8.61302C13.3573 8.44658 13.2998 8.28013 13.2268 8.11678C13.2022 8.05616 13.1734 7.99451 13.1457 7.938C13.0799 7.81575 13.0111 7.69349 12.933 7.57533C12.9173 7.55035 12.9 7.52504 12.8827 7.49977L12.8826 7.49967C12.8694 7.48029 12.8561 7.46094 12.8436 7.44178C12.7941 7.36543 12.7385 7.29184 12.6845 7.22044L12.6845 7.22043L12.6845 7.22042L12.6484 7.1726C12.6166 7.13077 12.5817 7.08893 12.5466 7.04682L12.5465 7.0467C12.5273 7.02369 12.508 7.0006 12.4892 6.97738C12.4358 6.91264 12.3834 6.851 12.3299 6.7904C12.1388 6.57464 11.9385 6.37942 11.7597 6.213C11.7269 6.18011 11.6909 6.14724 11.6539 6.11538C11.5152 5.98902 11.3888 5.87909 11.283 5.7938C11.2511 5.76928 11.2225 5.74512 11.1959 5.72263C11.1779 5.70744 11.1609 5.69302 11.1443 5.67976C11.1119 5.65561 11.0838 5.63421 11.0603 5.61629L11.0599 5.61604L11.0599 5.61599L11.022 5.58729C11.0138 5.58113 11.0046 5.57702 10.9953 5.57393L10.8782 5.54107V4.5712C10.8782 4.41298 10.8145 4.2712 10.7128 4.16742C10.6111 4.06364 10.4693 3.99996 10.3131 3.99996C10.0008 3.99996 9.74805 4.25578 9.74805 4.5712V5.22462L9.6895 5.20818L9.53025 5.16298L9.38538 5.12291C9.38496 5.12291 9.38453 5.12274 9.38403 5.12253C9.38332 5.12224 9.38247 5.12189 9.38127 5.12189H9.37818L8.27885 4.82393C8.23058 4.81058 8.18947 4.86298 8.21414 4.90716L8.38983 5.23182C8.39981 5.25681 8.41247 5.2818 8.42548 5.30748C8.43387 5.32403 8.4424 5.34087 8.45045 5.35818C8.47921 5.41573 8.50798 5.47633 8.53572 5.53696C8.56036 5.59038 8.58503 5.64278 8.61381 5.70031L8.65079 5.78265C8.69668 5.88457 8.74494 5.99175 8.79256 6.10718L8.79295 6.10811L8.79296 6.10812L8.79296 6.10813C8.83392 6.20541 8.87488 6.30271 8.91072 6.40409C9.00934 6.65991 9.10285 6.9332 9.18401 7.21369C9.20419 7.27637 9.22032 7.33705 9.23666 7.39854L9.23666 7.39855L9.23667 7.39856C9.24362 7.42473 9.25062 7.45105 9.25798 7.47773L9.26927 7.52704C9.30216 7.65753 9.33092 7.78698 9.35147 7.91747C9.36792 8.00684 9.38332 8.09211 9.39154 8.17842C9.40387 8.27602 9.41621 8.37362 9.42032 8.47122C9.42854 8.56062 9.43265 8.65411 9.43265 8.74349C9.43265 8.97158 9.4121 9.19144 9.36381 9.39898L9.35476 9.43261C9.34121 9.48318 9.32716 9.53561 9.31038 9.58598C9.29516 9.64001 9.27543 9.69405 9.25494 9.75017C9.24777 9.76981 9.24051 9.7897 9.23332 9.80993L9.22977 9.81948C9.21451 9.86063 9.19897 9.90251 9.17989 9.94351C9.07818 10.188 8.95181 10.4315 8.82134 10.6596C8.63023 10.9976 8.43812 11.2946 8.30352 11.4856C8.29533 11.4979 8.28735 11.5096 8.27965 11.5208C8.26997 11.535 8.26074 11.5485 8.25216 11.5617C8.21003 11.6213 8.25318 11.7055 8.32612 11.7055H9.74805V12.8285H8.30969C7.92338 12.8285 7.56585 12.6096 7.39323 12.2593C7.30385 12.0836 7.26892 11.8904 7.28947 11.7014C7.29461 11.6449 7.25247 11.5915 7.19494 11.5915H4.28945C4.24012 11.5915 4.20005 11.6315 4.20005 11.6808V11.7404C4.20005 13.5939 5.69698 15.096 7.54427 15.096H12.7563C13.7333 15.096 14.2881 14.2056 14.8333 13.3306L14.8333 13.3306C14.9853 13.0866 15.1366 12.8439 15.2961 12.622C15.5827 12.2233 16.2721 11.9069 16.4735 11.8206C16.5063 11.8062 16.5289 11.7733 16.5289 11.7363ZM4.97678 10.2682L4.93363 10.336C4.89563 10.3945 4.93774 10.4726 5.00965 10.4726H7.68503C7.71483 10.4726 7.74256 10.4582 7.75901 10.4336C7.79394 10.3802 7.82681 10.3247 7.85661 10.2682C8.08778 9.8798 8.29325 9.45958 8.36825 9.14931C8.54394 8.3952 8.16894 7.18389 7.73434 6.20989C7.70558 6.14518 7.61618 6.139 7.57818 6.1986L4.97678 10.2682Z" fill="white"/>
</svg>
