<svg width="65" height="142" viewBox="0 0 65 142" fill="none" xmlns="http://www.w3.org/2000/svg">
<path d="M60.37 23.0299L59.32 23.4499H44.9L46.09 21.6299C44.13 20.5799 41.4 19.2499 38.53 17.9899C44.83 13.9999 51.76 8.74992 56.73 3.77991L52.95 0.909912L51.76 1.18991H8.56997V6.01991H46.72C42.94 9.44991 37.83 13.0899 33.42 15.6099C29.15 13.7199 24.6 11.8299 20.75 10.2899L18.09 14.1399C24.32 16.7999 32.3 20.4399 38.25 23.4499H1.98997V28.4199H30.83V54.7399C30.83 55.7899 30.41 56.0699 29.15 56.1399C27.75 56.2099 23.06 56.2799 18.23 56.0699C18.93 57.5399 19.84 59.6399 20.19 61.1099C26.28 61.1099 30.34 61.0399 32.79 60.2699C35.24 59.4999 36.08 58.0299 36.08 54.8099V28.4199H55.96C53.44 32.4799 50.36 36.5399 47.77 39.3399L51.97 41.9999C56.24 37.7299 60.79 31.0799 64.5 24.9899L60.37 23.0299Z" fill="#B80707"/>
<path d="M9.05997 90.3599H56.73V100.58H62.05V85.4599H35.59V77.4799H30.2V85.4599H3.94997V100.58H9.05997V90.3599ZM35.59 120.11H56.31V115.28H35.59V103.66H53.44V98.7599H12.91V103.66H30.27V132.99C24.53 130.82 20.05 126.83 17.39 119.48C18.09 116.54 18.65 113.46 19.07 110.17L13.75 109.68C12.21 122.21 8.42997 132.15 0.659973 138.17C1.91997 138.94 4.08997 140.76 4.92997 141.67C9.47997 137.68 12.91 132.5 15.36 126.06C21.73 137.89 32.16 140.41 46.65 140.41H62.89C63.1 138.87 64.01 136.42 64.85 135.16C61.49 135.23 49.45 135.23 46.93 135.23C42.87 135.23 39.02 135.02 35.59 134.39V120.11Z" fill="#B80707"/>
</svg>
