<svg width="173" height="364" viewBox="0 0 173 364" fill="none" xmlns="http://www.w3.org/2000/svg">
<path d="M44.08 0.899933C34.36 26.4599 17.8 52.0199 0.700012 68.2199C4.30001 73.2599 9.88001 84.9599 11.86 89.9999C16.9 84.9599 21.94 79.3799 26.8 73.0799V168.12H47.14V42.1199C53.62 30.7799 59.2 18.8999 63.88 7.37994L44.08 0.899933ZM126.16 142.74V106.92H165.04V86.7599H126.16V55.4399H169.9V35.2799H128.68L136.6 26.2799C127.6 18.3599 109.24 7.19993 95.92 0.179932L81.7 15.4799C91.24 20.8799 102.94 28.4399 111.76 35.2799H60.64V55.4399H104.38V86.7599H66.4V106.92H104.38V142.74H56.5V162.9H172.6V142.74H126.16Z" fill="#B80707"/>
<path d="M70 207.38H44.8C46.24 212.6 46.6 218.72 46.6 230.06C46.6 230.42 46.6 230.96 46.6 231.5C44.8 231.5 43 231.5 41.2 231.5C32.74 231.5 22.12 230.6 12.22 229.16L13.48 250.22C25.36 251.3 35.08 251.66 42.82 251.66C44.08 251.66 45.34 251.66 46.6 251.66C46.6 255.8 46.6 259.94 46.6 263.9H45.88C26.26 263.9 12.58 279.92 12.58 301.16C12.58 324.2 25.9 333.56 39.04 333.56C40.12 333.56 41.02 333.56 41.92 333.38C41.92 334.64 41.92 335.9 41.92 337.16C41.92 349.76 43.72 363.08 85.66 363.08C97.9 363.08 116.62 361.82 124.72 359.12C145.6 352.82 150.46 342.74 151.36 326.36C151.9 318.98 151.72 314.66 151.72 305.3L126.7 297.74C127.96 306.2 128.14 312.86 128.14 320.06C128.14 329.24 124.18 335.36 114.82 338.06C107.98 340.22 96.28 341.3 87.28 341.3C66.04 341.3 64.06 337.34 64.06 329.6C64.06 327.44 64.06 324.92 64.06 322.4C70.54 314.48 73.42 303.32 73.42 291.98C73.42 284.78 71.62 278.48 68.2 273.8V250.22C78.46 249.32 89.8 247.7 100.42 245.18V223.58C89.62 226.64 78.64 228.62 68.2 229.88C68.2 219.26 68.92 212.6 70 207.38ZM130.48 223.94L115.36 238.88C125.62 246.44 142.72 263 152.44 274.88L168.64 258.32C160.54 248.6 141.64 230.96 130.48 223.94ZM41.38 311.96C36.16 311.96 31.48 307.46 31.48 299.54C31.48 288.92 37.24 281.9 44.44 281.9C49.48 281.9 52.9 286.04 52.9 293.06C52.9 303.14 49.66 311.96 41.38 311.96Z" fill="#B80707"/>
</svg>
