<?xml version="1.0" encoding="UTF-8"?>
<svg width="16px" height="16px" viewBox="0 0 16 16" version="1.1" xmlns="http://www.w3.org/2000/svg" xmlns:xlink="http://www.w3.org/1999/xlink">
    <title>618b2d3a70bb5b0f633d6ca0_instagram</title>
    <g id="Page-1" stroke="none" stroke-width="1" fill="none" fill-rule="evenodd">
        <g id="618b2d3a70bb5b0f633d6ca0_instagram" fill="#B80707">
            <path d="M7.1246676,0.00244002 C7.3844876,0.00203334 7.6744076,0.00244002 8.0000976,0.00244002 C10.6056576,0.00244002 10.9144576,0.0117933 11.9434576,0.0585596 C12.8948576,0.102073 13.4112576,0.261078 13.7552576,0.394668 C14.2106576,0.571567 14.5353576,0.783032 14.8767576,1.12463 C15.2182576,1.46623 15.4297576,1.79156 15.6070576,2.24702 C15.7405576,2.59065 15.8997576,3.10712 15.9430576,4.05871 C15.9898576,5.08757 15.9999576,5.39664 15.9999576,8.00132 C15.9999576,10.606 15.9898576,10.9151 15.9430576,11.9439 C15.8995576,12.8955 15.7405576,13.412 15.6070576,13.7556 C15.4301576,14.2111 15.2182576,14.5354 14.8767576,14.8768 C14.5351576,15.2184 14.2108576,15.4299 13.7552576,15.6068 C13.4117576,15.741 12.8948576,15.8996 11.9434576,15.9431 C10.9146576,15.9898 10.6056576,16 8.0000976,16 C5.3943276,16 5.0855076,15.9898 4.0567776,15.9431 C3.1052976,15.8991 2.5888976,15.7401 2.2447076,15.6066 C1.7892976,15.4297 1.4640076,15.2182 1.1224576,14.8766 C0.7808996,14.535 0.5694606,14.2105 0.3921776,13.7548 C0.2586056,13.4112 0.0994166,12.8947 0.0561125,11.9431 C0.0093521,10.9143 0,10.6052 0,7.99888 C0,5.39257 0.0093521,5.08513 0.0561125,4.05627 C0.0996196,3.10468 0.2586056,2.58821 0.3921776,2.24418 C0.5690546,1.78871 0.7808996,1.46338 1.1224576,1.12178 C1.4640076,0.780185 1.7892976,0.56872 2.2447076,0.391414 C2.5886976,0.257215 3.1052976,0.0986161 4.0567776,0.0548997 C4.9570176,0.0142333 5.3058876,0.00203334 7.1246676,0 L7.1246676,0.00244002 Z M13.2092576,1.623 C12.5626576,1.623 12.0381576,2.14698 12.0381576,2.79378 C12.0381576,3.44038 12.5626576,3.96498 13.2092576,3.96498 C13.8557576,3.96498 14.3802576,3.44038 14.3802576,2.79378 C14.3802576,2.14719 13.8557576,1.62259 13.2092576,1.62259 L13.2092576,1.623 Z M8.0000976,2.99142 C5.2324976,2.99142 2.9885976,5.2356 2.9885976,8.00356 C2.9885976,10.7715 5.2324976,13.0147 8.0000976,13.0147 C10.7677576,13.0147 13.0107576,10.7715 13.0107576,8.00356 C13.0107576,5.2356 10.7674576,2.99142 7.9998976,2.99142 L8.0000976,2.99142 Z" id="Shape"></path>
            <path d="M8.0000976,4.75024 C9.7965076,4.75024 11.2529576,6.20671 11.2529576,8.00356 C11.2529576,9.8002 9.7965076,11.2569 8.0000976,11.2569 C6.2034776,11.2569 4.7471876,9.8002 4.7471876,8.00356 C4.7471876,6.20671 6.2034776,4.75024 8.0000976,4.75024 Z" id="Path"></path>
        </g>
    </g>
</svg>